<svg xmlns="http://www.w3.org/2000/svg" id="Group_983" width="24" height="20.945" viewBox="0 0 24 20.945">
    <defs>
        <style>
            .cls-1{fill:#c8dfef}
        </style>
    </defs>
    <path id="Path_684" d="M67.715 61.26c.059-.052.122-.1.185-.148l-.052.039-.09.069c-.015.013-.028.028-.043.04z" class="cls-1" transform="translate(-49.482 -46.494)"/>
    <path id="Path_685" d="M69.535 60.07c.059-.035.119-.068.18-.1l-.013.006-.114.062z" class="cls-1" transform="translate(-50.728 -45.714)"/>
    <path id="Path_686" d="M70.625 59.576c.051-.023.1-.047.152-.068h-.007l-.115.051z" class="cls-1" transform="translate(-51.474 -45.399)"/>
    <path id="Path_687" d="M72.951 58.874l-.048.012-.057.015c.035-.009.069-.019.105-.027z" class="cls-1" transform="translate(-52.807 -44.967)"/>
    <path id="Path_688" d="M71.641 59.189c.054-.019.108-.04.164-.057l-.115.039z" class="cls-1" transform="translate(-51.965 -45.142)"/>
    <path id="Path_689" d="M68.658 60.583l-.043.032c.059-.043.12-.083.182-.122l-.034.02z" class="cls-1" transform="translate(-50.098 -46.071)"/>
    <path id="Path_690" d="M26.2 40.628c.016-.025.035-.056.056-.086.051-.072.1-.143.161-.215l.067-.086a4.277 4.277 0 0 1 .555-.557l.1-.079c.067-.052.137-.106.209-.156.031-.022.064-.044.122-.081s.138-.086.207-.126c.047-.027.092-.051.138-.074q.108-.056.22-.106l.139-.062c.083-.033.162-.061.241-.088l.128-.044c.108-.032.206-.057.3-.078l.083-.02c.09-.018.176-.033.261-.045v-7.763H10v11.421h15.537c.012-.085.027-.17.044-.253l.022-.088c.021-.1.046-.2.078-.3.006-.023.015-.049.025-.075l.019-.057c.028-.08.055-.161.088-.24.019-.048.041-.094.061-.14.035-.075.069-.148.108-.222l.069-.129c.043-.076.085-.144.127-.211z" class="cls-1" transform="translate(-10 -25.555)"/>
    <path id="Path_691" d="M10 18.488h19.191v-3.651H10zm4.506-2.278a.151.151 0 0 1 .151-.151h1.619a.151.151 0 0 1 .151.151v.9a.151.151 0 0 1-.151.151h-1.619a.151.151 0 0 1-.151-.151zm-3.4 0a.151.151 0 0 1 .151-.151h1.619a.151.151 0 0 1 .151.151v.9a.151.151 0 0 1-.151.151h-1.618a.15.15 0 0 1-.151-.151z" class="cls-1" transform="translate(-10 -14.837)"/>
    <path id="Path_692" d="M74.521 69.963l1.4-.7-1.4-.7z" class="cls-1" transform="translate(-53.978 -51.414)"/>
    <path id="Path_693" d="M68.684 60.614h-.144a3.142 3.142 0 0 0-.582.058l-.049.008a3.105 3.105 0 0 0-2.456 3v.038a3.094 3.094 0 1 0 3.231-3.1zm1.974 3.225l-2.858 1.43a.152.152 0 0 1-.068.016.15.15 0 0 1-.151-.151v-2.859a.151.151 0 0 1 .218-.135l2.859 1.429a.151.151 0 0 1 0 .269z" class="cls-1" transform="translate(-47.641 -45.855)"/>
    <path id="Path_694" d="M65.874 61.671a3.659 3.659 0 0 0-.4.409l-.062.081c-.049.064-.1.123-.139.186l-.041.063-.03.046c-.031.046-.059.095-.088.144a3.764 3.764 0 0 1 .76-.929z" class="cls-1" transform="translate(-47.68 -46.848)"/>
    <path id="Path_695" d="M64.759 64.919c-.014.025-.024.049-.036.074.035-.072.072-.145.112-.215l-.018.03-.058.111z" class="cls-1" transform="translate(-47.438 -48.999)"/>
    <path id="Path_696" d="M63.67 68.153c0 .014-.005.031-.008.045.012-.064.029-.126.044-.188 0 .02-.011.04-.016.06z" class="cls-1" transform="translate(-46.715 -51.026)"/>
    <path id="Path_697" d="M63.978 66.956a.613.613 0 0 0-.02.06c0 .015-.008.03-.012.045.018-.061.038-.12.058-.18l-.01.028z" class="cls-1" transform="translate(-46.908 -50.439)"/>
    <path id="Path_698" d="M64.307 65.946l-.022.059c.027-.069.055-.136.086-.2l-.012.025c-.017.036-.036.076-.052.116z" class="cls-1" transform="translate(-47.139 -49.699)"/>
</svg>
