<svg xmlns="http://www.w3.org/2000/svg" width="17.738" height="20.539" viewBox="0 0 17.738 20.539">
    <g>
        <path fill="#c8dfef" d="M18.871-1199.462H8.6a1.869 1.869 0 0 1-1.867-1.867v-13.071a1.869 1.869 0 0 1 1.867-1.867h10.27a1.869 1.869 0 0 1 1.867 1.867v13.071a1.869 1.869 0 0 1-1.866 1.867zM8.751-1205a.5.5 0 0 0-.5.5.5.5 0 0 0 .5.5h10a.5.5 0 0 0 .5-.5.5.5 0 0 0-.5-.5zm0-3a.5.5 0 0 0-.5.5.5.5 0 0 0 .5.5h10a.5.5 0 0 0 .5-.5.5.5 0 0 0-.5-.5zm0-3a.5.5 0 0 0-.5.5.5.5 0 0 0 .5.5h10a.5.5 0 0 0 .5-.5.5.5 0 0 0-.5-.5zm-3.884 5.937H3v-13.07A1.87 1.87 0 0 1 4.867-1220h11.2v1.868h-11.2v13.069z" transform="translate(-24.749 -310) translate(21.75 1530)"/>
    </g>
</svg>
