<svg xmlns="http://www.w3.org/2000/svg" id="Group_1011" width="23.952" height="20.227" viewBox="0 0 23.952 20.227">
    <defs>
        <style>
            .cls-1{fill:#c8dfef}
        </style>
    </defs>
    <path id="Path_682" d="M28.592 19.644l-3.032-2.038v-3.212a.335.335 0 0 0-.335-.343h-2.052a.335.335 0 0 0-.343.343v1.386l-5.4-3.643a.814.814 0 0 0-.91 0L5.358 19.644a.814.814 0 0 0-.158 1.214l.921 1.049a.814.814 0 0 0 1.065.138l9.334-6.273a.814.814 0 0 1 .908 0l9.336 6.27a.814.814 0 0 0 1.065-.138l.921-1.049a.814.814 0 0 0-.157-1.211z" class="cls-1" transform="translate(-4.998 -11.998)"/>
    <path id="Path_683" d="M34.547 35.873l-7.774-5.259a.814.814 0 0 0-.913 0l-7.771 5.259a.814.814 0 0 0-.359.673v8.426a.814.814 0 0 0 .817.812H34.09a.814.814 0 0 0 .814-.814v-8.424a.814.814 0 0 0-.357-.673zm-6.26 3.582h-1.17v1.176h-1.6v-1.176h-1.168v-1.6h1.171V36.69h1.6v1.176h1.171z" class="cls-1" transform="translate(-14.341 -25.557)"/>
</svg>
