<svg xmlns="http://www.w3.org/2000/svg" width="20" height="20" viewBox="0 0 20 20">
    <path fill="#fff" d="M96.323 117.375v-.013a.869.869 0 0 0-.838-.862h-18.3a.846.846 0 0 0-.826.68 3.677 3.677 0 0 0-.025.746v17.539a2.032 2.032 0 0 0 0 .2.862.862 0 0 0 .84.829H95.478a.855.855 0 0 0 .838-.779 1.864 1.864 0 0 0 .009-.253V117.4a.1.1 0 0 1-.002-.025zm-12.294.721a.369.369 0 0 1 .344-.379h3.911a.367.367 0 0 1 .344.379v4.744a.35.35 0 0 1-.519.329c-.083-.053-.165-.106-.248-.157l-1.533-.971-.076.048-1.707 1.082a.349.349 0 0 1-.519-.329V118.1zm4.1 15.366h-3.6a.508.508 0 0 1 0-1.011h3.6a.508.508 0 0 1 0 1.011zm1.836-2.579h-7.274a.508.508 0 0 1 0-1.012h7.275a.508.508 0 0 1 0 1.012z" transform="translate(-76.325 -116.5)"/>
</svg>
