<svg xmlns="http://www.w3.org/2000/svg" width="14.545" height="20" viewBox="0 0 14.545 20">
    <path fill="#c8dfef" d="M18 958.362v20h10.909v-3.182a.482.482 0 0 1 .455-.455h3.182v-16.363zm9.73 2.5a.462.462 0 0 1 .455.242.476.476 0 0 1-.071.518l-3.182 3.636a.471.471 0 0 1-.611.064l-1.821-1.363a.455.455 0 1 1 .54-.732l1.484 1.115 2.9-3.324a.46.46 0 0 1 .306-.156zm-7 6.825h9.091a.455.455 0 1 1 0 .909h-9.094a.455.455 0 1 1 0-.909zm0 3.636h9.091a.455.455 0 1 1 0 .909h-9.094a.455.455 0 1 1 0-.909zm0 3.636h6.818a.455.455 0 1 1 0 .909h-6.821a.455.455 0 1 1 0-.909zm9.091.675v2.273l2.273-2.273z" transform="translate(-18 -958.362)"/>
</svg>
