<svg xmlns="http://www.w3.org/2000/svg" width="20" height="20" viewBox="0 0 20 20">
    <g>
        <path fill="#fff" d="M22.758 11.5h-1.692a7.551 7.551 0 0 0-.306-.732l1.2-1.2a1.234 1.234 0 0 0 .365-.864 1.2 1.2 0 0 0-.351-.867L20.153 6.02a1.253 1.253 0 0 0-1.731.014l-1.2 1.2a7.528 7.528 0 0 0-.735-.308V5.234A1.225 1.225 0 0 0 15.277 4h-2.572a1.226 1.226 0 0 0-1.214 1.234v1.688a7.565 7.565 0 0 0-.735.308l-1.2-1.2a1.254 1.254 0 0 0-1.727-.01L6.011 7.838a1.226 1.226 0 0 0 .014 1.731l1.2 1.2a7.551 7.551 0 0 0-.306.732H5.225a1.226 1.226 0 0 0-1.234 1.214v2.572A1.226 1.226 0 0 0 5.225 16.5h1.7a7.5 7.5 0 0 0 .305.728l-1.2 1.2a1.235 1.235 0 0 0-.365.864 1.2 1.2 0 0 0 .351.867l1.813 1.821a1.253 1.253 0 0 0 1.731-.014l1.205-1.205a7.624 7.624 0 0 0 .726.3v1.7A1.225 1.225 0 0 0 12.705 24h2.572a1.225 1.225 0 0 0 1.214-1.234v-1.7a7.443 7.443 0 0 0 .726-.3l1.205 1.205a1.253 1.253 0 0 0 1.731.014l1.819-1.819a1.193 1.193 0 0 0 .351-.866 1.236 1.236 0 0 0-.365-.864l-1.2-1.2a7.5 7.5 0 0 0 .305-.728h1.7a1.225 1.225 0 0 0 1.234-1.214v-2.58a1.225 1.225 0 0 0-1.239-1.214zm-5.2 2.494a3.571 3.571 0 1 1-3.571-3.571 3.576 3.576 0 0 1 3.576 3.571z" transform="translate(-3.991 -4)"/>
    </g>
</svg>
